# xmcd
#
# Track frame offsets:
#	150
#	20142
#	42095
#	59492
#	72755
#	93017
#	107330
#	122090
#	139772
#	153995
#	170815
#	192237
#	212887
#	227737
#	249905
#	268657
#	287395
#	302920
#
# Disc length: 4379 seconds
#
# Revision: 0
# Processed by: cddbd v1.4PL0 Copyright (c) Steve Scherf et al.
# Submitted via: EasyCDDAExtractor 4.6.0.1
#
DISCID=fb111912
DTITLE=Diverse - Ohne Filter - Musik Pur Vol. 4
DYEAR=1997
DGENRE=Blues
TTITLE0=Average White Band - SOul Mine
TTITLE1=Keb´Mo´- More Than One Way Home
TTITLE2=Paul Carrack - How Long
TTITLE3=Francine Reed (feat. Lyle Lovett) - Why I Don´t Know
TTITLE4=Ronny Jordan - Fooled
TTITLE5=Jooles Holland and his Rhythm and Blues Orchestra - Well Alright
TTITLE6=Joe Cocker - Delta Lady
TTITLE7=Freak Power - Waiting For The Story To End
TTITLE8=BR 5-49 - Even If It´s Wrong
TTITLE9=Popa Chubby - Palace Of The King
TTITLE10=Nils Gessinger - Bobo´s Blues
TTITLE11=Andraé Crouch - Love Somebody Like Me
TTITLE12=Paul Rodgers - Overloaded
TTITLE13=Michael McDonald - Blink Of An Eye
TTITLE14=Michael Hill´s Blues Mob - Sweeter Days
TTITLE15=Steve Lukather - Freedom
TTITLE16=Eddie Bo - Kick It On Back
TTITLE17=Incognito - Roots (Back To A Way Of Life)
EXTD=
EXTT0=
EXTT1=
EXTT2=
EXTT3=
EXTT4=
EXTT5=
EXTT6=
EXTT7=
EXTT8=
EXTT9=
EXTT10=
EXTT11=
EXTT12=
EXTT13=
EXTT14=
EXTT15=
EXTT16=
EXTT17=
PLAYORDER=
